HIERARCHY
ROOT Hips
{
	OFFSET -3.958830 18.904000 13.208200
	CHANNELS 6 Xposition Yposition Zposition Zrotation Yrotation Xrotation 
	JOINT LHipJoint
	{
		OFFSET 0.000000 0.000000 0.000000
		CHANNELS 3 Zrotation Yrotation Xrotation
		JOINT LeftUpLeg
		{
			OFFSET 1.800000 -1.400000 0.085000
			CHANNELS 3 Zrotation Yrotation Xrotation
			JOINT LeftLeg
			{
				OFFSET 2.215000 -6.000000 0.000000
				CHANNELS 3 Zrotation Yrotation Xrotation
				JOINT LeftFoot
				{
					OFFSET 2.500000 -6.900000 0.000000
					CHANNELS 3 Zrotation Yrotation Xrotation
					JOINT LeftToeBase
					{
						OFFSET 0.200000 -0.500000 1.950000
						CHANNELS 3 Zrotation Yrotation Xrotation
						End Site
						{
							OFFSET 0.000000 0.000000 0.000000
						}
					}
				}
			}
		}
	}
	JOINT RHipJoint
	{
		OFFSET 0.000000 0.000000 0.000000
		CHANNELS 3 Zrotation Yrotation Xrotation
		JOINT RightUpLeg
		{
			OFFSET -1.800000 -1.400000 0.085000
			CHANNELS 3 Zrotation Yrotation Xrotation
			JOINT RightLeg
			{
				OFFSET -2.215000 -6.000000 0.000000
				CHANNELS 3 Zrotation Yrotation Xrotation
				JOINT RightFoot
				{
					OFFSET -2.500000 -6.900000 0.000000
					CHANNELS 3 Zrotation Yrotation Xrotation
					JOINT RightToeBase
					{
						OFFSET -0.200000 -0.500000 1.950000
						CHANNELS 3 Zrotation Yrotation Xrotation
						End Site
						{
							OFFSET 0.000000 0.000000 0.000000
						}
					}
				}
			}
		}
	}
	JOINT LowerBack
	{
		OFFSET 0.000000 0.000000 0.000000
		CHANNELS 3 Zrotation Yrotation Xrotation
		JOINT Spine
		{
			OFFSET -0.087000 1.940000 -0.288900
			CHANNELS 3 Zrotation Yrotation Xrotation
			JOINT Spine1
			{
				OFFSET 0.000000 1.950000 0.060000
				CHANNELS 3 Zrotation Yrotation Xrotation
				JOINT Neck
				{
					OFFSET 0.000000 0.000000 0.000000
					CHANNELS 3 Zrotation Yrotation Xrotation
					JOINT Neck1
					{
						OFFSET 0.000000 1.600000 0.340000
						CHANNELS 3 Zrotation Yrotation Xrotation
						JOINT Head
						{
							OFFSET 0.000000 1.667000 -0.240000
							CHANNELS 3 Zrotation Yrotation Xrotation
							End Site
							{
								OFFSET 0.000000 0.000000 0.000000
							}
						}
					}
				}
				JOINT LeftShoulder
				{
					OFFSET 0.000000 0.000000 0.000000
					CHANNELS 3 Zrotation Yrotation Xrotation
					JOINT LeftArm
					{
						OFFSET 2.700000 1.550000 -0.730000
						CHANNELS 3 Zrotation Yrotation Xrotation
						JOINT LeftForeArm
						{
							OFFSET 5.450000 0.000000 0.000000
							CHANNELS 3 Zrotation Yrotation Xrotation
							JOINT LeftHand
							{
								OFFSET 3.450000 0.000000 0.000000
								CHANNELS 3 Zrotation Yrotation Xrotation
								JOINT LeftHandIndex1
								{
									OFFSET 0.750000 0.000000 0.000000
									CHANNELS 3 Zrotation Yrotation Xrotation
									End Site
									{
										OFFSET 0.000000 0.000000 0.000000
									}
								}
							}
						}
					}
				}
				JOINT RightShoulder
				{
					OFFSET 0.000000 0.000000 0.000000
					CHANNELS 3 Zrotation Yrotation Xrotation
					JOINT RightArm
					{
						OFFSET -2.700000 1.550000 -0.730000
						CHANNELS 3 Zrotation Yrotation Xrotation
						JOINT RightForeArm
						{
							OFFSET -5.450000 0.000000 0.000000
							CHANNELS 3 Zrotation Yrotation Xrotation
							JOINT RightHand
							{
								OFFSET -3.450000 0.000000 0.000000
								CHANNELS 3 Zrotation Yrotation Xrotation
								JOINT RightHandIndex1
								{
									OFFSET -0.750000 0.000000 0.000000
									CHANNELS 3 Zrotation Yrotation Xrotation
									End Site
									{
										OFFSET 0.000000 0.000000 0.000000
									}
								}
							}
						}
					}
				}
			}
		}
	}
}
MOTION
Frames: 7
Frame Time: 0.016667
1.857610 17.186450 -1.222510 -7.508468 -28.987530 11.459473 -15.464831 12.804175 2.972469 -2.175960 -0.222359 -5.955054 -7.491638 3.651166 1.017969 -0.574778 4.384188 3.598161 1.025030 0.629440 0.458150 18.226551 -9.629525 3.277887 -1.107624 3.696627 -28.778007 4.890078 -1.837414 -2.467356 -0.171261 -2.513244 3.588682 0.550560 0.912210 1.034850 -3.110133 -2.323895 -7.150185 4.326826 -3.053168 3.398230 1.383315 -4.186392 4.600772 2.150716 1.901579 -6.691265 2.869168 2.409549 20.935912 -3.464620 2.293360 -4.621590 -13.172100 -4.611523 0.885050 -23.651082 -13.674138 1.796736 11.899700 -11.122248 -2.108732 -4.261635 3.199186 0.424320 0.779520 0.059310 0.932030 9.810609 2.383452 2.702242 24.318076 7.418247 -1.330436 -7.965994 17.013304 -2.078289 1.925478 -2.071775 -0.131120 0.085780 -0.533500 0.134550 
1.857140 17.188520 -1.229460 -7.301393 -29.094809 11.370276 -15.474701 12.818525 2.962999 -2.382464 -0.250591 -6.112202 -7.319167 3.641674 1.362659 -0.608238 4.361032 3.585751 1.070060 0.665660 0.506930 18.216923 -9.610214 3.281738 -1.564961 3.649063 -29.186962 4.743052 -1.803225 -2.567482 -0.182426 -2.517412 3.553519 0.577940 0.878720 1.054280 -3.084356 -2.372562 -7.139225 4.027975 -3.206739 3.377886 1.299261 -4.374877 4.637028 2.229284 2.079883 -6.568603 3.162832 2.338888 20.754001 -3.793430 2.434280 -4.909970 -13.059886 -4.504507 0.750011 -21.507395 -13.835236 1.906157 11.484008 -10.367185 -1.995751 -4.266978 3.231741 0.430910 0.773060 0.071970 0.923980 9.578363 2.083529 2.571614 23.362791 7.657031 -1.127579 -8.289766 16.652006 -2.122018 1.927993 -2.109890 -0.118090 0.054700 -0.551820 0.117810 
1.850780 17.183270 -1.235120 -7.199756 -29.452231 11.453724 -15.495955 12.810634 2.946157 -2.565736 -0.305322 -6.341699 -7.203032 3.594353 1.498600 -0.672236 4.350740 3.553175 1.127180 0.725400 0.535820 18.206158 -9.550767 3.292176 -2.164092 3.680364 -30.050908 4.716149 -1.751694 -2.619719 -0.184729 -2.527870 3.499447 0.635460 0.854110 1.077930 -3.056847 -2.443753 -7.101802 3.581088 -3.095784 3.053885 1.790104 -4.391800 4.939722 2.073862 2.215611 -6.380877 3.399550 2.474375 20.120157 -3.726130 2.390110 -5.309890 -12.785420 -4.356875 0.524860 -18.923629 -14.421643 2.137093 11.416821 -9.570194 -1.956624 -4.290328 3.293477 0.424040 0.775890 0.067580 0.914530 9.686639 1.760322 2.426561 20.672081 7.428564 -0.882661 -8.456098 16.486392 -2.129922 1.904077 -2.168474 -0.104380 0.023470 -0.551570 0.103600 
1.839430 17.188640 -1.236670 -6.955248 -29.834583 11.133908 -15.518909 12.841464 2.942788 -2.646605 -0.240519 -6.138509 -7.324146 3.675473 1.787138 -0.676238 4.397294 3.555898 1.134400 0.732410 0.538890 18.185534 -9.510991 3.295000 -2.674249 3.596991 -30.621341 4.218867 -1.690502 -2.817073 -0.175011 -2.518011 3.514726 0.650380 0.875260 1.067640 -2.995844 -2.551303 -7.104397 2.916149 -3.008444 3.131380 2.314244 -4.402348 5.203238 1.911785 2.309733 -6.473498 3.513125 2.427832 20.134611 -3.683980 2.309030 -5.144380 -12.882152 -4.702163 0.554586 -15.978195 -14.396243 2.046536 11.685550 -8.997775 -1.900718 -4.289332 3.275333 0.429180 0.786390 0.061400 0.935480 10.145699 2.018084 2.632176 17.581582 6.645728 -0.811940 -8.607635 16.322040 -2.084790 1.899458 -2.175262 -0.126780 0.045060 -0.570420 0.108500 
1.837740 17.198790 -1.234830 -6.756693 -30.106328 10.483908 -15.536125 12.896629 2.977362 -2.862866 -0.093000 -5.426873 -6.922788 3.617457 1.519545 -0.664422 4.386665 3.541109 1.155160 0.735640 0.576810 18.160019 -9.500503 3.281617 -3.517700 3.395526 -30.935210 4.178491 -1.745237 -2.434600 -0.191578 -2.489490 3.498782 0.636630 0.816980 1.066210 -2.923278 -2.667177 -7.150708 2.480367 -2.998772 3.689676 2.631484 -4.457530 5.497461 1.846976 2.411677 -6.748417 3.580921 2.228032 20.881839 -3.593170 2.290060 -5.728970 -12.866401 -5.357863 0.732346 -12.606800 -14.245272 1.955995 10.808509 -7.847028 -1.729753 -4.246401 3.287534 0.471700 0.738570 0.093790 0.919410 10.262474 2.568530 3.027533 14.895573 5.969409 -0.786986 -8.988422 15.407421 -1.992761 1.934227 -2.169081 -0.115090 0.013180 -0.586590 0.090010 
1.825270 17.208360 -1.241610 -6.331272 -30.745083 9.693354 -15.564283 12.957669 3.020342 -3.139575 0.081837 -4.754622 -6.965658 3.687383 1.514037 -0.640368 4.423398 3.523489 1.138570 0.706750 0.604010 18.123707 -9.487562 3.265201 -4.253546 3.180225 -31.266440 3.857317 -1.784319 -2.102781 -0.194257 -2.441656 3.503576 0.608030 0.777310 1.048760 -2.809984 -2.798750 -7.205727 1.475664 -2.782771 4.344613 3.155731 -4.349704 5.550590 1.854497 2.548474 -7.032729 3.706966 2.063845 21.734286 -3.906410 2.558110 -6.130040 -12.628545 -5.822729 0.879709 -9.705709 -14.094108 1.871114 10.035567 -6.665963 -1.580428 -4.231321 3.250473 0.506360 0.706380 0.116130 0.890620 10.038928 3.025487 3.406262 12.647048 5.581230 -0.643162 -8.769366 14.003862 -1.822760 1.978166 -2.124388 -0.122270 0.007820 -0.586960 0.066820 
1.817020 17.214880 -1.244410 -6.478447 -31.139673 9.221994 -15.571148 13.003231 3.047198 -2.760711 0.181697 -4.193805 -7.350803 3.806055 1.363094 -0.607628 4.506327 3.514165 1.111770 0.670900 0.620130 18.107025 -9.481333 3.262327 -4.429987 3.072005 -31.031555 3.420727 -1.759809 -2.417662 -0.198020 -2.408608 3.543305 0.577670 0.770490 1.022820 -2.761127 -2.890900 -7.276862 1.576922 -2.845447 5.043353 3.418043 -4.408618 5.488187 1.827430 2.374501 -7.208087 3.315038 1.885884 22.580414 -4.531580 2.714800 -6.459360 -12.217574 -5.996241 0.940344 -7.722594 -14.214331 1.904808 9.265058 -4.851107 -1.454895 -4.248033 3.166576 0.532320 0.695370 0.128890 0.878790 9.676135 3.341957 3.649267 10.643777 5.434142 -0.586291 -8.959240 12.919667 -1.712687 2.001551 -2.063741 -0.141250 0.042140 -0.585950 0.050510 
